<?xml version="1.0" encoding="UTF-8" standalone="no"?><svg xmlns="http://www.w3.org/2000/svg" xmlns:xlink="http://www.w3.org/1999/xlink" contentStyleType="text/css" height="362px" preserveAspectRatio="none" style="width:596px;height:362px;background:#FFFFFF;" version="1.1" viewBox="0 0 596 362" width="596px" zoomAndPan="magnify"><defs/><g><!--MD5=[5f51afafa712fffc1914f0efc7bb3354]
cluster Davivienda.Framework.Services.CanonicalSignature--><g id="cluster_Davivienda.Framework.Services.CanonicalSignature"><path d="M8.5,6 L377.5,6 A3.75,3.75 0 0 1 380,8.5 L387,29.6094 L586.5,29.6094 A2.5,2.5 0 0 1 589,32.1094 L589,352.5 A2.5,2.5 0 0 1 586.5,355 L8.5,355 A2.5,2.5 0 0 1 6,352.5 L6,8.5 A2.5,2.5 0 0 1 8.5,6 " fill="none" style="stroke:#000000;stroke-width:1.5;"/><line style="stroke:#000000;stroke-width:1.5;" x1="6" x2="387" y1="29.6094" y2="29.6094"/><text fill="#000000" font-family="sans-serif" font-size="14" font-weight="bold" lengthAdjust="spacing" textLength="368" x="10" y="22.5332">Davivienda.Framework.Services.CanonicalSignature</text></g><!--MD5=[f1144120ce97ab864d4130146bfcad6b]
class Davivienda.Framework.Services.CanonicalSignature.ErrorDetail--><g id="elem_Davivienda.Framework.Services.CanonicalSignature.ErrorDetail"><rect codeLine="6" fill="#F1F1F1" height="83.2188" id="Davivienda.Framework.Services.CanonicalSignature.ErrorDetail" rx="2.5" ry="2.5" style="stroke:#181818;stroke-width:0.5;" width="134" x="234" y="256"/><ellipse cx="264.3" cy="272" fill="#DA70D6" rx="11" ry="11" style="stroke:#181818;stroke-width:1.0;"/><path d="M267.0656,267.875 Q267.2219,267.6563 267.4094,267.5469 Q267.5969,267.4375 267.8156,267.4375 Q268.1906,267.4375 268.425,267.6953 Q268.6594,267.9531 268.6594,268.5625 L268.6594,270.0156 Q268.6594,270.625 268.425,270.8906 Q268.1906,271.1563 267.8156,271.1563 Q267.4719,271.1563 267.2688,270.9531 Q267.0656,270.7656 266.9563,270.25 Q266.9094,269.8906 266.7219,269.7031 Q266.3938,269.3281 265.7844,269.1094 Q265.175,268.8906 264.55,268.8906 Q263.7844,268.8906 263.1516,269.2188 Q262.5188,269.5469 262.0266,270.2969 Q261.5344,271.0469 261.5344,272.0781 L261.5344,273.1719 Q261.5344,274.4063 262.425,275.2266 Q263.3156,276.0469 264.9094,276.0469 Q265.8469,276.0469 266.5031,275.7969 Q266.8938,275.6406 267.3156,275.2031 Q267.5813,274.9375 267.7297,274.8594 Q267.8781,274.7813 268.0813,274.7813 Q268.4094,274.7813 268.6672,275.0391 Q268.925,275.2969 268.925,275.6406 Q268.925,275.9844 268.5813,276.3906 Q268.0813,276.9688 267.2844,277.2969 Q266.2063,277.75 264.9094,277.75 Q263.3938,277.75 262.1906,277.125 Q261.2063,276.625 260.5188,275.5547 Q259.8313,274.4844 259.8313,273.2031 L259.8313,272.0469 Q259.8313,270.7188 260.4484,269.5703 Q261.0656,268.4219 262.1594,267.8047 Q263.2531,267.1875 264.4875,267.1875 Q265.2219,267.1875 265.8703,267.3516 Q266.5188,267.5156 267.0656,267.875 Z " fill="#000000"/><text fill="#000000" font-family="sans-serif" font-size="14" lengthAdjust="spacing" textLength="68" x="281.7" y="277.7285">ErrorDetail</text><line style="stroke:#181818;stroke-width:0.5;" x1="235" x2="367" y1="288" y2="288"/><ellipse cx="240" cy="301.8047" fill="none" rx="-2" ry="-2" style="stroke:#038048;stroke-width:1.0;"/><text fill="#000000" font-family="sans-serif" font-size="14" lengthAdjust="spacing" textLength="108" x="254" y="306.5332">Message: string?</text><ellipse cx="240" cy="319.4141" fill="none" rx="-2" ry="-2" style="stroke:#038048;stroke-width:1.0;"/><text fill="#000000" font-family="sans-serif" font-size="14" lengthAdjust="spacing" textLength="85" x="254" y="324.1426">Code: string?</text><line style="stroke:#181818;stroke-width:0.5;" x1="235" x2="367" y1="331.2188" y2="331.2188"/></g><!--MD5=[81f173fccae580bbcb80462779949210]
class Davivienda.Framework.Services.CanonicalSignature.ServiceRequest--><g id="elem_Davivienda.Framework.Services.CanonicalSignature.ServiceRequest"><rect codeLine="14" fill="#F1F1F1" height="65.6094" id="Davivienda.Framework.Services.CanonicalSignature.ServiceRequest" rx="2.5" ry="2.5" style="stroke:#181818;stroke-width:0.5;" width="143" x="429.5" y="86"/><ellipse cx="444.5" cy="102" fill="#DA70D6" rx="11" ry="11" style="stroke:#181818;stroke-width:1.0;"/><path d="M447.2656,97.875 Q447.4219,97.6563 447.6094,97.5469 Q447.7969,97.4375 448.0156,97.4375 Q448.3906,97.4375 448.625,97.6953 Q448.8594,97.9531 448.8594,98.5625 L448.8594,100.0156 Q448.8594,100.625 448.625,100.8906 Q448.3906,101.1563 448.0156,101.1563 Q447.6719,101.1563 447.4688,100.9531 Q447.2656,100.7656 447.1563,100.25 Q447.1094,99.8906 446.9219,99.7031 Q446.5938,99.3281 445.9844,99.1094 Q445.375,98.8906 444.75,98.8906 Q443.9844,98.8906 443.3516,99.2188 Q442.7188,99.5469 442.2266,100.2969 Q441.7344,101.0469 441.7344,102.0781 L441.7344,103.1719 Q441.7344,104.4063 442.625,105.2266 Q443.5156,106.0469 445.1094,106.0469 Q446.0469,106.0469 446.7031,105.7969 Q447.0938,105.6406 447.5156,105.2031 Q447.7813,104.9375 447.9297,104.8594 Q448.0781,104.7813 448.2813,104.7813 Q448.6094,104.7813 448.8672,105.0391 Q449.125,105.2969 449.125,105.6406 Q449.125,105.9844 448.7813,106.3906 Q448.2813,106.9688 447.4844,107.2969 Q446.4063,107.75 445.1094,107.75 Q443.5938,107.75 442.3906,107.125 Q441.4063,106.625 440.7188,105.5547 Q440.0313,104.4844 440.0313,103.2031 L440.0313,102.0469 Q440.0313,100.7188 440.6484,99.5703 Q441.2656,98.4219 442.3594,97.8047 Q443.4531,97.1875 444.6875,97.1875 Q445.4219,97.1875 446.0703,97.3516 Q446.7188,97.5156 447.2656,97.875 Z " fill="#000000"/><text fill="#000000" font-family="sans-serif" font-size="14" lengthAdjust="spacing" textLength="100" x="458.5" y="107.7285">ServiceRequest</text><rect fill="#FFFFFF" height="17.0938" style="stroke:#181818;stroke-width:1.0;stroke-dasharray:2.0,2.0;" width="9" x="566.5" y="83"/><text fill="#000000" font-family="sans-serif" font-size="12" font-style="italic" lengthAdjust="spacing" textLength="7" x="567.5" y="96.457">T</text><line style="stroke:#181818;stroke-width:0.5;" x1="430.5" x2="571.5" y1="118" y2="118"/><ellipse cx="435.5" cy="131.8047" fill="none" rx="-2" ry="-2" style="stroke:#038048;stroke-width:1.0;"/><text fill="#000000" font-family="sans-serif" font-size="14" lengthAdjust="spacing" textLength="57" x="449.5" y="136.5332">Body: T?</text><line style="stroke:#181818;stroke-width:0.5;" x1="430.5" x2="571.5" y1="143.6094" y2="143.6094"/></g><!--MD5=[c5c86a84c93d51635f30a239028642bc]
class Davivienda.Framework.Services.CanonicalSignature.ServiceResponse--><g id="elem_Davivienda.Framework.Services.CanonicalSignature.ServiceResponse"><rect codeLine="22" fill="#F1F1F1" height="153.6563" id="Davivienda.Framework.Services.CanonicalSignature.ServiceResponse" rx="2.5" ry="2.5" style="stroke:#181818;stroke-width:0.5;" width="187" x="207.5" y="42"/><ellipse cx="237.35" cy="58" fill="#DA70D6" rx="11" ry="11" style="stroke:#181818;stroke-width:1.0;"/><path d="M240.1156,53.875 Q240.2719,53.6563 240.4594,53.5469 Q240.6469,53.4375 240.8656,53.4375 Q241.2406,53.4375 241.475,53.6953 Q241.7094,53.9531 241.7094,54.5625 L241.7094,56.0156 Q241.7094,56.625 241.475,56.8906 Q241.2406,57.1563 240.8656,57.1563 Q240.5219,57.1563 240.3188,56.9531 Q240.1156,56.7656 240.0063,56.25 Q239.9594,55.8906 239.7719,55.7031 Q239.4438,55.3281 238.8344,55.1094 Q238.225,54.8906 237.6,54.8906 Q236.8344,54.8906 236.2016,55.2188 Q235.5688,55.5469 235.0766,56.2969 Q234.5844,57.0469 234.5844,58.0781 L234.5844,59.1719 Q234.5844,60.4063 235.475,61.2266 Q236.3656,62.0469 237.9594,62.0469 Q238.8969,62.0469 239.5531,61.7969 Q239.9438,61.6406 240.3656,61.2031 Q240.6313,60.9375 240.7797,60.8594 Q240.9281,60.7813 241.1313,60.7813 Q241.4594,60.7813 241.7172,61.0391 Q241.975,61.2969 241.975,61.6406 Q241.975,61.9844 241.6313,62.3906 Q241.1313,62.9688 240.3344,63.2969 Q239.2563,63.75 237.9594,63.75 Q236.4438,63.75 235.2406,63.125 Q234.2563,62.625 233.5688,61.5547 Q232.8813,60.4844 232.8813,59.2031 L232.8813,58.0469 Q232.8813,56.7188 233.4984,55.5703 Q234.1156,54.4219 235.2094,53.8047 Q236.3031,53.1875 237.5375,53.1875 Q238.2719,53.1875 238.9203,53.3516 Q239.5688,53.5156 240.1156,53.875 Z " fill="#000000"/><text fill="#000000" font-family="sans-serif" font-size="14" lengthAdjust="spacing" textLength="111" x="254.65" y="63.7285">ServiceResponse</text><rect fill="#FFFFFF" height="17.0938" style="stroke:#181818;stroke-width:1.0;stroke-dasharray:2.0,2.0;" width="9" x="388.5" y="39"/><text fill="#000000" font-family="sans-serif" font-size="12" font-style="italic" lengthAdjust="spacing" textLength="7" x="389.5" y="52.457">T</text><line style="stroke:#181818;stroke-width:0.5;" x1="208.5" x2="393.5" y1="74" y2="74"/><ellipse cx="213.5" cy="87.8047" fill="none" rx="-2" ry="-2" style="stroke:#038048;stroke-width:1.0;"/><text fill="#000000" font-family="sans-serif" font-size="14" lengthAdjust="spacing" textLength="55" x="227.5" y="92.5332">Data: T?</text><ellipse cx="213.5" cy="105.4141" fill="none" rx="-2" ry="-2" style="stroke:#038048;stroke-width:1.0;"/><text fill="#000000" font-family="sans-serif" font-size="14" lengthAdjust="spacing" textLength="106" x="227.5" y="110.1426">Succeeded: bool</text><ellipse cx="213.5" cy="123.0234" fill="none" rx="-2" ry="-2" style="stroke:#038048;stroke-width:1.0;"/><text fill="#000000" font-family="sans-serif" font-size="14" lengthAdjust="spacing" textLength="132" x="227.5" y="127.752">TransactionId: Guid?</text><ellipse cx="213.5" cy="140.6328" fill="none" rx="-2" ry="-2" style="stroke:#038048;stroke-width:1.0;"/><text fill="#000000" font-family="sans-serif" font-size="14" lengthAdjust="spacing" textLength="107" x="227.5" y="145.3613">SessionId: Guid?</text><ellipse cx="213.5" cy="158.2422" fill="none" rx="-2" ry="-2" style="stroke:#038048;stroke-width:1.0;"/><text fill="#000000" font-family="sans-serif" font-size="14" lengthAdjust="spacing" textLength="161" x="227.5" y="162.9707">Errors: List&lt;ErrorDetail&gt;?</text><line style="stroke:#181818;stroke-width:0.5;" x1="208.5" x2="393.5" y1="170.0469" y2="170.0469"/><ellipse cx="213.5" cy="183.8516" fill="#84BE84" rx="-2" ry="-2" style="stroke:#038048;stroke-width:1.0;"/><text fill="#000000" font-family="sans-serif" font-size="14" lengthAdjust="spacing" textLength="121" x="227.5" y="188.5801">ServiceResponse()</text></g><!--MD5=[c162b457aa9cbe68376fd6c0561c6ce3]
class Davivienda.Framework.Services.CanonicalSignature.StandardHeader--><g id="elem_Davivienda.Framework.Services.CanonicalSignature.StandardHeader"><rect codeLine="34" fill="#F1F1F1" height="118.4375" id="Davivienda.Framework.Services.CanonicalSignature.StandardHeader" rx="2.5" ry="2.5" style="stroke:#181818;stroke-width:0.5;" width="150" x="22" y="60"/><ellipse cx="38.35" cy="76" fill="#DA70D6" rx="11" ry="11" style="stroke:#181818;stroke-width:1.0;"/><path d="M41.1156,71.875 Q41.2719,71.6563 41.4594,71.5469 Q41.6469,71.4375 41.8656,71.4375 Q42.2406,71.4375 42.475,71.6953 Q42.7094,71.9531 42.7094,72.5625 L42.7094,74.0156 Q42.7094,74.625 42.475,74.8906 Q42.2406,75.1563 41.8656,75.1563 Q41.5219,75.1563 41.3188,74.9531 Q41.1156,74.7656 41.0063,74.25 Q40.9594,73.8906 40.7719,73.7031 Q40.4438,73.3281 39.8344,73.1094 Q39.225,72.8906 38.6,72.8906 Q37.8344,72.8906 37.2016,73.2188 Q36.5688,73.5469 36.0766,74.2969 Q35.5844,75.0469 35.5844,76.0781 L35.5844,77.1719 Q35.5844,78.4063 36.475,79.2266 Q37.3656,80.0469 38.9594,80.0469 Q39.8969,80.0469 40.5531,79.7969 Q40.9438,79.6406 41.3656,79.2031 Q41.6313,78.9375 41.7797,78.8594 Q41.9281,78.7813 42.1313,78.7813 Q42.4594,78.7813 42.7172,79.0391 Q42.975,79.2969 42.975,79.6406 Q42.975,79.9844 42.6313,80.3906 Q42.1313,80.9688 41.3344,81.2969 Q40.2563,81.75 38.9594,81.75 Q37.4438,81.75 36.2406,81.125 Q35.2563,80.625 34.5688,79.5547 Q33.8813,78.4844 33.8813,77.2031 L33.8813,76.0469 Q33.8813,74.7188 34.4984,73.5703 Q35.1156,72.4219 36.2094,71.8047 Q37.3031,71.1875 38.5375,71.1875 Q39.2719,71.1875 39.9203,71.3516 Q40.5688,71.5156 41.1156,71.875 Z " fill="#000000"/><text fill="#000000" font-family="sans-serif" font-size="14" lengthAdjust="spacing" textLength="104" x="52.65" y="81.7285">StandardHeader</text><rect fill="#FFFFFF" height="17.0938" style="stroke:#181818;stroke-width:1.0;stroke-dasharray:2.0,2.0;" width="9" x="166" y="57"/><text fill="#000000" font-family="sans-serif" font-size="12" font-style="italic" lengthAdjust="spacing" textLength="7" x="167" y="70.457">T</text><line style="stroke:#181818;stroke-width:0.5;" x1="23" x2="171" y1="92" y2="92"/><ellipse cx="28" cy="105.8047" fill="none" rx="-2" ry="-2" style="stroke:#038048;stroke-width:1.0;"/><text fill="#000000" font-family="sans-serif" font-size="14" lengthAdjust="spacing" textLength="124" x="42" y="110.5332">TransactionId: Guid</text><ellipse cx="28" cy="123.4141" fill="none" rx="-2" ry="-2" style="stroke:#038048;stroke-width:1.0;"/><text fill="#000000" font-family="sans-serif" font-size="14" lengthAdjust="spacing" textLength="99" x="42" y="128.1426">SessionId: Guid</text><ellipse cx="28" cy="141.0234" fill="none" rx="-2" ry="-2" style="stroke:#038048;stroke-width:1.0;"/><text fill="#000000" font-family="sans-serif" font-size="14" lengthAdjust="spacing" textLength="87" x="42" y="145.752">ChannelId: int</text><ellipse cx="28" cy="158.6328" fill="none" rx="-2" ry="-2" style="stroke:#038048;stroke-width:1.0;"/><text fill="#000000" font-family="sans-serif" font-size="14" lengthAdjust="spacing" textLength="70" x="42" y="163.3613">I18n: string</text><line style="stroke:#181818;stroke-width:0.5;" x1="23" x2="171" y1="170.4375" y2="170.4375"/></g><!--MD5=[59c51aa375ca961253a29e55db773021]
link Davivienda.Framework.Services.CanonicalSignature.ServiceResponse to Davivienda.Framework.Services.CanonicalSignature.ErrorDetail--><g id="link_Davivienda.Framework.Services.CanonicalSignature.ServiceResponse_Davivienda.Framework.Services.CanonicalSignature.ErrorDetail"><path codeLine="43" d="M301,196.13 C301,214.73 301,234.07 301,250.74 " fill="none" id="Davivienda.Framework.Services.CanonicalSignature.ServiceResponse-to-Davivienda.Framework.Services.CanonicalSignature.ErrorDetail" style="stroke:#181818;stroke-width:1.0;"/><polygon fill="#181818" points="301,255.83,305,246.83,301,250.83,297,246.83,301,255.83" style="stroke:#181818;stroke-width:1.0;"/></g><!--MD5=[af465e07395247fc90f5220e711bcf7d]
@startuml CanonicalSignature

skinparam classAttributeIconSize 1
skinparam namespaceSeparator .

namespace Davivienda.Framework.Services.CanonicalSignature {
  class ErrorDetail << (C,orchid) >>
  {
    + Message: string?
    + Code: string?
  }
}

namespace Davivienda.Framework.Services.CanonicalSignature {
  class ServiceRequest<T> << (C,orchid) >>
  {
    + Body: T?
  }
}


namespace Davivienda.Framework.Services.CanonicalSignature {
  class ServiceResponse<T> << (C,orchid) >>
  {
    + ServiceResponse()
    + Data: T?
    + Succeeded: bool
    + TransactionId: Guid?
    + SessionId: Guid?
    + Errors: List<ErrorDetail>?
  }
}

namespace Davivienda.Framework.Services.CanonicalSignature {
  class StandardHeader<T> << (C,orchid) >>
  {
    + TransactionId: Guid
    + SessionId: Guid
    + ChannelId: int
    + I18n: string
  }
}

Davivienda.Framework.Services.CanonicalSignature.ServiceResponse - -> Davivienda.Framework.Services.CanonicalSignature.ErrorDetail

@enduml

PlantUML version 1.2022.7(Mon Aug 22 11:01:30 CST 2022)
(GPL source distribution)
Java Runtime: Java(TM) SE Runtime Environment
JVM: Java HotSpot(TM) 64-Bit Server VM
Default Encoding: Cp1252
Language: es
Country: ES
--></g></svg>